<svg width="45" height="45" viewBox="0 0 45 45" fill="none" xmlns="http://www.w3.org/2000/svg">
<path d="M39.375 35.625V37.5H5.625V35.625L9.375 31.875V20.625C9.375 14.8125 13.1813 9.69375 18.75 8.04375V7.5C18.75 6.50544 19.1451 5.55161 19.8484 4.84835C20.5516 4.14509 21.5054 3.75 22.5 3.75C23.4946 3.75 24.4484 4.14509 25.1516 4.84835C25.8549 5.55161 26.25 6.50544 26.25 7.5V8.04375C31.8188 9.69375 35.625 14.8125 35.625 20.625V31.875L39.375 35.625ZM26.25 39.375C26.25 40.3696 25.8549 41.3234 25.1516 42.0266C24.4484 42.7299 23.4946 43.125 22.5 43.125C21.5054 43.125 20.5516 42.7299 19.8484 42.0266C19.1451 41.3234 18.75 40.3696 18.75 39.375" fill="black"/>
</svg>
